<svg width="95" height="28" viewBox="0 0 95 28" fill="none" xmlns="http://www.w3.org/2000/svg">
<path d="M9.248 5.968C10.464 5.968 11.5627 6.128 12.544 6.448C13.5467 6.74667 14.3893 7.14133 15.072 7.632C15.4987 7.93067 15.8293 8.26133 16.064 8.624C16.32 8.98667 16.448 9.456 16.448 10.032V21.232C16.448 22.3627 16.2347 23.3333 15.808 24.144C15.3813 24.976 14.7947 25.6587 14.048 26.192C13.3227 26.7467 12.4587 27.152 11.456 27.408C10.4747 27.664 9.41867 27.792 8.288 27.792C6.34667 27.792 4.82133 27.5253 3.712 26.992C2.60267 26.48 2.048 25.6373 2.048 24.464C2.048 23.9733 2.144 23.536 2.336 23.152C2.54933 22.7893 2.784 22.512 3.04 22.32C3.65867 22.6613 4.352 22.9493 5.12 23.184C5.90933 23.4187 6.72 23.536 7.552 23.536C8.704 23.536 9.62133 23.344 10.304 22.96C10.9867 22.576 11.328 21.9573 11.328 21.104V20.592C10.4533 20.976 9.38667 21.168 8.128 21.168C7.168 21.168 6.25067 21.0293 5.376 20.752C4.52267 20.4533 3.76533 20.0053 3.104 19.408C2.464 18.7893 1.94133 18 1.536 17.04C1.152 16.08 0.96 14.9387 0.96 13.616C0.96 12.3147 1.16267 11.184 1.568 10.224C1.99467 9.264 2.57067 8.47467 3.296 7.856C4.04267 7.216 4.91733 6.74667 5.92 6.448C6.944 6.128 8.05333 5.968 9.248 5.968ZM11.232 10.608C11.0827 10.5227 10.8587 10.4373 10.56 10.352C10.2827 10.2667 9.93067 10.224 9.504 10.224C8.45867 10.224 7.66933 10.5227 7.136 11.12C6.624 11.696 6.368 12.528 6.368 13.616C6.368 14.8533 6.624 15.7493 7.136 16.304C7.66933 16.8373 8.34133 17.104 9.152 17.104C10.0267 17.104 10.72 16.9013 11.232 16.496V10.608ZM25.2603 21.968C25.0469 22.032 24.7056 22.096 24.2363 22.16C23.7883 22.224 23.3189 22.256 22.8283 22.256C22.3589 22.256 21.9323 22.224 21.5483 22.16C21.1856 22.096 20.8763 21.968 20.6203 21.776C20.3643 21.584 20.1616 21.328 20.0123 21.008C19.8843 20.6667 19.8203 20.2293 19.8203 19.696V10.096C19.8203 9.60533 19.9056 9.18933 20.0763 8.848C20.2683 8.48533 20.5349 8.16533 20.8763 7.888C21.2176 7.61067 21.6336 7.36533 22.1243 7.152C22.6363 6.91733 23.1803 6.71467 23.7563 6.544C24.3323 6.37333 24.9296 6.24533 25.5483 6.16C26.1669 6.05333 26.7856 6 27.4043 6C28.4283 6 29.2389 6.20267 29.8363 6.608C30.4336 6.992 30.7323 7.632 30.7323 8.528C30.7323 8.82667 30.6896 9.12533 30.6043 9.424C30.5189 9.70133 30.4123 9.95733 30.2843 10.192C29.8363 10.192 29.3776 10.2133 28.9083 10.256C28.4389 10.2987 27.9803 10.3627 27.5323 10.448C27.0843 10.5333 26.6576 10.6293 26.2523 10.736C25.8683 10.8213 25.5376 10.928 25.2603 11.056V21.968ZM48.4788 14.224C48.4788 15.5467 48.2761 16.7307 47.8708 17.776C47.4654 18.8 46.8894 19.664 46.1428 20.368C45.4174 21.072 44.5428 21.6053 43.5188 21.968C42.4948 22.3307 41.3534 22.512 40.0948 22.512C38.8361 22.512 37.6948 22.32 36.6708 21.936C35.6468 21.552 34.7614 21.008 34.0148 20.304C33.2894 19.5787 32.7241 18.704 32.3188 17.68C31.9134 16.656 31.7108 15.504 31.7108 14.224C31.7108 12.9653 31.9134 11.824 32.3188 10.8C32.7241 9.776 33.2894 8.912 34.0148 8.208C34.7614 7.48267 35.6468 6.928 36.6708 6.544C37.6948 6.16 38.8361 5.968 40.0948 5.968C41.3534 5.968 42.4948 6.17067 43.5188 6.576C44.5428 6.96 45.4174 7.51467 46.1428 8.24C46.8894 8.944 47.4654 9.808 47.8708 10.832C48.2761 11.856 48.4788 12.9867 48.4788 14.224ZM37.2788 14.224C37.2788 15.5253 37.5241 16.528 38.0148 17.232C38.5268 17.9147 39.2308 18.256 40.1267 18.256C41.0228 18.256 41.7054 17.904 42.1748 17.2C42.6654 16.496 42.9108 15.504 42.9108 14.224C42.9108 12.944 42.6654 11.9627 42.1748 11.28C41.6841 10.576 40.9908 10.224 40.0948 10.224C39.1988 10.224 38.5054 10.576 38.0148 11.28C37.5241 11.9627 37.2788 12.944 37.2788 14.224ZM67.2288 14.224C67.2288 15.5467 67.0261 16.7307 66.6208 17.776C66.2154 18.8 65.6394 19.664 64.8928 20.368C64.1674 21.072 63.2928 21.6053 62.2688 21.968C61.2448 22.3307 60.1034 22.512 58.8448 22.512C57.5861 22.512 56.4448 22.32 55.4208 21.936C54.3968 21.552 53.5114 21.008 52.7648 20.304C52.0394 19.5787 51.4741 18.704 51.0688 17.68C50.6634 16.656 50.4608 15.504 50.4608 14.224C50.4608 12.9653 50.6634 11.824 51.0688 10.8C51.4741 9.776 52.0394 8.912 52.7648 8.208C53.5114 7.48267 54.3968 6.928 55.4208 6.544C56.4448 6.16 57.5861 5.968 58.8448 5.968C60.1034 5.968 61.2448 6.17067 62.2688 6.576C63.2928 6.96 64.1674 7.51467 64.8928 8.24C65.6394 8.944 66.2154 9.808 66.6208 10.832C67.0261 11.856 67.2288 12.9867 67.2288 14.224ZM56.0288 14.224C56.0288 15.5253 56.2741 16.528 56.7648 17.232C57.2768 17.9147 57.9808 18.256 58.8767 18.256C59.7728 18.256 60.4554 17.904 60.9248 17.2C61.4154 16.496 61.6608 15.504 61.6608 14.224C61.6608 12.944 61.4154 11.9627 60.9248 11.28C60.4341 10.576 59.7408 10.224 58.8448 10.224C57.9488 10.224 57.2554 10.576 56.7648 11.28C56.2741 11.9627 56.0288 12.944 56.0288 14.224ZM77.0188 5.968C78.2988 5.968 79.4828 6.13867 80.5708 6.48C81.6801 6.8 82.6294 7.30133 83.4188 7.984C84.2081 8.66667 84.8268 9.53067 85.2748 10.576C85.7228 11.6 85.9468 12.8267 85.9468 14.256C85.9468 15.6213 85.7548 16.816 85.3708 17.84C84.9868 18.864 84.4428 19.728 83.7388 20.432C83.0348 21.1147 82.1814 21.6267 81.1788 21.968C80.1974 22.3093 79.0988 22.48 77.8828 22.48C76.9654 22.48 76.1121 22.3413 75.3228 22.064V27.376C75.1094 27.44 74.7681 27.504 74.2988 27.568C73.8294 27.6533 73.3494 27.696 72.8588 27.696C72.3894 27.696 71.9628 27.664 71.5788 27.6C71.2161 27.536 70.9068 27.408 70.6508 27.216C70.3948 27.024 70.2028 26.7573 70.0748 26.416C69.9468 26.096 69.8828 25.6693 69.8828 25.136V9.776C69.8828 9.2 70.0001 8.73067 70.2348 8.368C70.4908 8.00533 70.8321 7.67467 71.2588 7.376C71.9201 6.94933 72.7414 6.608 73.7228 6.352C74.7041 6.096 75.8028 5.968 77.0188 5.968ZM77.0828 18.192C79.2801 18.192 80.3788 16.88 80.3788 14.256C80.3788 12.8907 80.1014 11.8773 79.5468 11.216C79.0134 10.5547 78.2348 10.224 77.2108 10.224C76.8054 10.224 76.4428 10.2773 76.1228 10.384C75.8028 10.4693 75.5254 10.576 75.2908 10.704V17.744C75.5468 17.872 75.8241 17.9787 76.1228 18.064C76.4214 18.1493 76.7414 18.192 77.0828 18.192ZM94.1375 21.968C93.9028 22.0107 93.5508 22.064 93.0815 22.128C92.6335 22.2133 92.1748 22.256 91.7055 22.256C91.2362 22.256 90.8095 22.224 90.4255 22.16C90.0628 22.096 89.7535 21.968 89.4975 21.776C89.2415 21.584 89.0388 21.328 88.8895 21.008C88.7615 20.6667 88.6975 20.2293 88.6975 19.696V1.136C88.9322 1.09333 89.2735 1.04 89.7215 0.976C90.1908 0.890666 90.6602 0.848 91.1295 0.848C91.5988 0.848 92.0148 0.879999 92.3775 0.943998C92.7615 1.008 93.0815 1.136 93.3375 1.328C93.5935 1.52 93.7855 1.78667 93.9135 2.128C94.0628 2.448 94.1375 2.87467 94.1375 3.408V21.968Z" fill="url(#paint0_linear_1_2)"/>
<defs>
<linearGradient id="paint0_linear_1_2" x1="94" y1="-5.70199" x2="0.0211006" y2="-1.52524" gradientUnits="userSpaceOnUse">
<stop offset="0.0625" stop-color="#28C4E7"/>
<stop offset="1" stop-color="#3ED3A7" stop-opacity="0.97"/>
</linearGradient>
</defs>
</svg>
