<svg width="305" height="90" viewBox="0 0 305 90" fill="none" xmlns="http://www.w3.org/2000/svg">
<path d="M29.6909 19.1828C33.5949 19.1828 37.1224 19.6971 40.2728 20.7257C43.492 21.6857 46.1972 22.9543 48.3891 24.5314C49.759 25.4914 50.8204 26.5543 51.5739 27.72C52.3958 28.8857 52.8067 30.3943 52.8067 32.2457V68.2457C52.8067 71.8801 52.1219 74.9999 50.752 77.6057C49.3821 80.28 47.4988 82.4744 45.1015 84.1886C42.7729 85.9715 39.999 87.2743 36.7798 88.0971C33.6293 88.92 30.2389 89.3314 26.6088 89.3314C20.3762 89.3314 15.479 88.4742 11.9175 86.76C8.35594 85.1143 6.57516 82.4056 6.57516 78.6343C6.57516 77.057 6.88337 75.6514 7.49979 74.4171C8.18469 73.2513 8.93811 72.36 9.76 71.7428C11.7463 72.8399 13.9722 73.7656 16.4379 74.52C18.9721 75.2744 21.5747 75.6514 24.2459 75.6514C27.9444 75.6514 30.8895 75.0343 33.0813 73.8C35.2731 72.5657 36.3688 70.577 36.3688 67.8343V66.1886C33.5606 67.4228 30.1362 68.04 26.0952 68.04C23.0131 68.04 20.0679 67.5942 17.2598 66.7029C14.5202 65.7427 12.0887 64.3027 9.96548 62.3829C7.91074 60.3942 6.23269 57.8571 4.93137 54.7714C3.69853 51.6857 3.08211 48.0172 3.08211 43.7657C3.08211 39.583 3.73278 35.9486 5.03411 32.8629C6.40394 29.7771 8.25321 27.24 10.5819 25.2514C12.9791 23.1943 15.7872 21.6857 19.0063 20.7257C22.2939 19.6971 25.8554 19.1828 29.6909 19.1828ZM36.0606 34.0971C35.5813 33.823 34.8621 33.5485 33.9032 33.2743C33.0129 33.0001 31.8827 32.8629 30.5128 32.8629C27.1568 32.8629 24.6226 33.823 22.9103 35.7429C21.2665 37.5943 20.4446 40.2686 20.4446 43.7657C20.4446 47.7427 21.2665 50.6227 22.9103 52.4057C24.6226 54.1199 26.7801 54.9771 29.3827 54.9771C32.191 54.9771 34.4168 54.3256 36.0606 53.0229V34.0971ZM81.0989 70.6114C80.4137 70.8171 79.318 71.0228 77.8113 71.2286C76.373 71.4343 74.8659 71.5371 73.2909 71.5371C71.7838 71.5371 70.4142 71.4343 69.1814 71.2286C68.0169 71.0228 67.0239 70.6114 66.202 69.9943C65.3801 69.3771 64.7294 68.5543 64.25 67.5257C63.8391 66.4287 63.6336 65.0227 63.6336 63.3086V32.4514C63.6336 30.8743 63.9075 29.5371 64.4555 28.44C65.0719 27.2743 65.9278 26.2457 67.0239 25.3543C68.1197 24.4629 69.4552 23.6743 71.0307 22.9886C72.6744 22.2343 74.421 21.5829 76.2702 21.0343C78.1195 20.4857 80.0371 20.0743 82.0235 19.8C84.0095 19.4571 85.9959 19.2857 87.9822 19.2857C91.2698 19.2857 93.8723 19.9371 95.7902 21.24C97.7079 22.4743 98.6669 24.5314 98.6669 27.4114C98.6669 28.3714 98.5298 29.3314 98.2559 30.2914C97.9817 31.1828 97.6395 32.0057 97.2285 32.76C95.7902 32.76 94.3176 32.8285 92.8109 32.9657C91.3038 33.103 89.8315 33.3087 88.3932 33.5829C86.9549 33.857 85.5849 34.1656 84.2837 34.5086C83.0509 34.7827 81.9891 35.1257 81.0989 35.5371V70.6114ZM155.642 45.72C155.642 49.9715 154.992 53.7772 153.69 57.1371C152.389 60.4286 150.54 63.2057 148.143 65.4686C145.814 67.7314 143.006 69.4456 139.718 70.6114C136.431 71.7772 132.766 72.36 128.725 72.36C124.684 72.36 121.02 71.7429 117.733 70.5086C114.445 69.2743 111.602 67.5257 109.205 65.2629C106.877 62.9315 105.062 60.12 103.76 56.8286C102.459 53.5371 101.808 49.8343 101.808 45.72C101.808 41.6742 102.459 38.0057 103.76 34.7143C105.062 31.4229 106.877 28.6457 109.205 26.3829C111.602 24.0514 114.445 22.2686 117.733 21.0343C121.02 19.8 124.684 19.1828 128.725 19.1828C132.766 19.1828 136.431 19.8343 139.718 21.1371C143.006 22.3714 145.814 24.1543 148.143 26.4857C150.54 28.7486 152.389 31.5257 153.69 34.8171C154.992 38.1086 155.642 41.743 155.642 45.72ZM119.685 45.72C119.685 49.9027 120.472 53.1257 122.048 55.3886C123.691 57.583 125.952 58.68 128.828 58.68C131.705 58.68 133.896 57.5486 135.403 55.2857C136.978 53.0229 137.766 49.8343 137.766 45.72C137.766 41.6057 136.978 38.4515 135.403 36.2571C133.828 33.9943 131.602 32.8629 128.725 32.8629C125.849 32.8629 123.623 33.9943 122.048 36.2571C120.472 38.4515 119.685 41.6057 119.685 45.72ZM215.84 45.72C215.84 49.9715 215.189 53.7772 213.888 57.1371C212.586 60.4286 210.737 63.2057 208.34 65.4686C206.011 67.7314 203.203 69.4456 199.916 70.6114C196.628 71.7772 192.964 72.36 188.923 72.36C184.882 72.36 181.218 71.7429 177.93 70.5086C174.642 69.2743 171.8 67.5257 169.403 65.2629C167.074 62.9315 165.259 60.12 163.958 56.8286C162.656 53.5371 162.006 49.8343 162.006 45.72C162.006 41.6742 162.656 38.0057 163.958 34.7143C165.259 31.4229 167.074 28.6457 169.403 26.3829C171.8 24.0514 174.642 22.2686 177.93 21.0343C181.218 19.8 184.882 19.1828 188.923 19.1828C192.964 19.1828 196.628 19.8343 199.916 21.1371C203.203 22.3714 206.011 24.1543 208.34 26.4857C210.737 28.7486 212.586 31.5257 213.888 34.8171C215.189 38.1086 215.84 41.743 215.84 45.72ZM179.882 45.72C179.882 49.9027 180.669 53.1257 182.245 55.3886C183.889 57.583 186.149 58.68 189.025 58.68C191.902 58.68 194.094 57.5486 195.601 55.2857C197.176 53.0229 197.964 49.8343 197.964 45.72C197.964 41.6057 197.176 38.4515 195.601 36.2571C194.025 33.9943 191.799 32.8629 188.923 32.8629C186.046 32.8629 183.82 33.9943 182.245 36.2571C180.669 38.4515 179.882 41.6057 179.882 45.72ZM247.271 19.1828C251.38 19.1828 255.182 19.7314 258.675 20.8286C262.236 21.8571 265.284 23.4686 267.818 25.6629C270.352 27.8571 272.339 30.6343 273.777 33.9943C275.215 37.2857 275.934 41.2287 275.934 45.8228C275.934 50.2113 275.318 54.0514 274.085 57.3429C272.852 60.6343 271.106 63.4114 268.846 65.6743C266.585 67.8687 263.846 69.5144 260.627 70.6114C257.476 71.7085 253.949 72.2571 250.045 72.2571C247.099 72.2571 244.36 71.8113 241.826 70.92V87.9943C241.141 88.2 240.045 88.4057 238.538 88.6114C237.031 88.8856 235.49 89.0228 233.915 89.0228C232.408 89.0228 231.038 88.92 229.806 88.7143C228.641 88.5086 227.648 88.0971 226.826 87.48C226.004 86.8628 225.388 86.0056 224.977 84.9086C224.566 83.88 224.361 82.5085 224.361 80.7943V31.4229C224.361 29.5714 224.737 28.0629 225.491 26.8971C226.313 25.7314 227.408 24.6686 228.778 23.7086C230.901 22.3371 233.538 21.24 236.689 20.4171C239.839 19.5943 243.367 19.1828 247.271 19.1828ZM247.476 58.4743C254.531 58.4743 258.058 54.2571 258.058 45.8228C258.058 41.4344 257.168 38.177 255.387 36.0514C253.675 33.9258 251.175 32.8629 247.887 32.8629C246.586 32.8629 245.422 33.0342 244.394 33.3771C243.367 33.6513 242.476 33.9943 241.723 34.4057V57.0343C242.545 57.4457 243.435 57.7887 244.394 58.0628C245.353 58.337 246.38 58.4743 247.476 58.4743ZM302.231 70.6114C301.477 70.7487 300.347 70.92 298.841 71.1257C297.402 71.3999 295.93 71.5371 294.423 71.5371C292.916 71.5371 291.546 71.4343 290.313 71.2286C289.149 71.0228 288.156 70.6114 287.334 69.9943C286.512 69.3771 285.861 68.5543 285.382 67.5257C284.971 66.4287 284.766 65.0227 284.766 63.3086V3.65142C285.519 3.51427 286.615 3.34285 288.053 3.13714C289.56 2.86285 291.067 2.72571 292.574 2.72571C294.08 2.72571 295.416 2.82856 296.58 3.03427C297.813 3.23999 298.841 3.65142 299.663 4.26856C300.484 4.88571 301.101 5.74286 301.512 6.83999C301.991 7.86856 302.231 9.24 302.231 10.9543V70.6114Z" fill="url(#paint0_linear_10_2)"/>
<defs>
<linearGradient id="paint0_linear_10_2" x1="301.789" y1="-18.3278" x2="0.0663472" y2="-4.93389" gradientUnits="userSpaceOnUse">
<stop offset="0.0625" stop-color="#28C4E7"/>
<stop offset="1" stop-color="#3ED3A7" stop-opacity="0.97"/>
</linearGradient>
</defs>
</svg>
